<svg aria-hidden="true" style="width:0;height:0;position:absolute;overflow:hidden" xmlns="http://www.w3.org/2000/svg"><defs><symbol id="icon-film-opt" viewBox="0 0 32 32"><path fill="none" stroke="#fff" style="stroke:var(--color1,#fff)" stroke-linejoin="round" stroke-linecap="round" stroke-width="2.667" d="M26.436 3.607H5.576c-1.606 0-2.908 1.24-2.908 2.769v19.863c0 1.529 1.302 2.769 2.908 2.769h20.86c1.606 0 2.908-1.24 2.908-2.769V6.376c0-1.529-1.302-2.769-2.908-2.769zm-17.1 0v25.401M22.674 3.607v25.401M2.668 16.307h26.676M2.668 9.957h6.669m-6.669 12.7h6.669m13.337 0h6.669m-6.669-12.7h6.669"/></symbol><symbol id="icon-search-opt" viewBox="0 0 32 32"><path fill="none" stroke="#fff" style="stroke:var(--color1,#fff)" stroke-linejoin="round" stroke-linecap="round" stroke-width="2.667" d="M14.672 25.342c5.893 0 10.67-4.777 10.67-10.67s-4.777-10.67-10.67-10.67v0c-5.893 0-10.67 4.777-10.67 10.67s4.777 10.67 10.67 10.67v0zm13.337 2.667-5.802-5.802"/></symbol><symbol id="icon-heart-opt" viewBox="0 0 32 32"><path fill="#ff6b08" style="fill:var(--color2,#ff6b08)" d="m16.009 30.598-2.241-2.241C5.443 20.993 0 16.03 0 9.946c0-4.963 3.842-8.805 8.805-8.805 2.722 0 5.443 1.281 7.204 3.362 1.761-2.081 4.483-3.362 7.204-3.362 4.963 0 8.805 3.842 8.805 8.805 0 6.084-5.443 11.046-13.768 18.411l-2.241 2.241z"/></symbol><symbol id="icon-instagram-opt" viewBox="0 0 32 32"><path d="M31.968 9.408c-.074-1.701-.349-2.869-.742-3.882a7.839 7.839 0 0 0-1.85-2.837l-.001-.001A7.906 7.906 0 0 0 26.597.861l-.054-.018C25.524.449 24.362.176 22.661.101 20.949.019 20.405 0 16.059 0c-4.344 0-4.888.019-6.595.094-1.699.074-2.869.349-3.88.742a7.847 7.847 0 0 0-2.839 1.85l-.001.001A7.9 7.9 0 0 0 .919 5.465l-.018.054C.506 6.538.232 7.7.157 9.401c-.082 1.712-.101 2.256-.101 6.602 0 4.344.019 4.888.094 6.595.075 1.701.35 2.869.744 3.882a7.915 7.915 0 0 0 1.849 2.837l.001.001c.8.813 1.77 1.443 2.832 1.843 1.019.395 2.182.67 3.882.744 1.707.075 2.251.094 6.595.094 4.346 0 4.89-.019 6.595-.094 1.701-.074 2.869-.349 3.882-.742a8.237 8.237 0 0 0 4.664-4.628l.019-.055c.394-1.019.669-2.182.744-3.882.075-1.707.093-2.251.093-6.595s-.006-4.888-.08-6.595zm-2.88 13.066c-.07 1.563-.333 2.406-.55 2.97a5.341 5.341 0 0 1-3.004 3.024l-.036.012c-.56.219-1.411.482-2.968.55-1.688.075-2.194.094-6.464.094-4.269 0-4.782-.019-6.464-.094-1.563-.069-2.406-.331-2.97-.55a4.953 4.953 0 0 1-1.836-1.192l-.001-.001a4.978 4.978 0 0 1-1.184-1.803L3.6 25.45c-.218-.563-.48-1.413-.549-2.97-.075-1.688-.094-2.195-.094-6.464 0-4.27.019-4.784.094-6.464.069-1.563.331-2.406.549-2.97a4.897 4.897 0 0 1 1.198-1.837l.002-.002a4.972 4.972 0 0 1 1.806-1.182l.034-.011c.56-.219 1.411-.48 2.968-.55 1.688-.074 2.195-.093 6.464-.093 4.275 0 4.782.019 6.464.093 1.563.069 2.406.331 2.97.55a4.91 4.91 0 0 1 1.837 1.194c.531.52.938 1.144 1.195 1.84.218.56.48 1.411.549 2.968.075 1.688.094 2.194.094 6.464 0 4.269-.019 4.768-.094 6.458z"/><path d="M16.059 7.782a8.223 8.223 0 0 0-8.219 8.221 8.223 8.223 0 0 0 16.442.008v-.009a8.223 8.223 0 0 0-8.221-8.221zm0 13.552a5.333 5.333 0 0 1 .001-10.666h.001a5.334 5.334 0 1 1 0 10.668zM26.525 7.458a1.92 1.92 0 0 1-3.84 0 1.92 1.92 0 0 1 3.84 0z"/></symbol><symbol id="icon-twitter-opt" viewBox="0 0 32 32"><path fill="#afb1b8" style="fill:var(--color3,#afb1b8)" d="M32 6.078c-1.1.493-2.376.857-3.713 1.028l-.068.007a6.556 6.556 0 0 0 2.873-3.579l.013-.046a12.88 12.88 0 0 1-4.076 1.573l-.084.014A6.558 6.558 0 0 0 15.6 9.557v.004c0 .52.043 1.021.152 1.496-5.454-.266-10.28-2.88-13.522-6.861a6.524 6.524 0 0 0-.902 3.313v.001a6.57 6.57 0 0 0 2.914 5.451 6.453 6.453 0 0 1-2.994-.823l.033.017v.072a6.592 6.592 0 0 0 5.213 6.44l.043.008a6.403 6.403 0 0 1-1.662.215h-.061.003c-.419 0-.843-.024-1.242-.112.85 2.598 3.261 4.509 6.13 4.57a13.093 13.093 0 0 1-8.122 2.8H1.57h.001-.062c-.531 0-1.055-.034-1.569-.099l.061.006c2.826 1.846 6.287 2.944 10.004 2.944h.063-.003c12.072 0 18.672-10 18.672-18.669 0-.288-.01-.57-.024-.848a13.203 13.203 0 0 0 3.258-3.355l.03-.047z"/></symbol><symbol id="icon-facebook-opt" viewBox="0 0 32 32"><path fill="#afb1b8" style="fill:var(--color3,#afb1b8)" d="M21.328 5.312h2.923V.224A36.478 36.478 0 0 0 20.144 0h-.157.008c-4.213 0-7.099 2.65-7.099 7.52V12H8.25v5.688h4.646V32h5.699V17.69h4.459l.709-5.688h-5.17V8.08c0-1.643.443-2.768 2.734-2.768z"/></symbol><symbol id="icon-linkedin-opt" viewBox="0 0 32 32"><path fill="#afb1b8" style="fill:var(--color3,#afb1b8)" d="M31.992 32H32V20.262c0-5.741-1.235-10.163-7.947-10.163-3.227 0-5.392 1.77-6.277 3.45h-.093v-2.914h-6.365v21.363h6.627V21.42c0-2.786.528-5.48 3.978-5.48 3.398 0 3.45 3.179 3.45 5.658V32h6.619zM.528 10.635h6.635V32H.528V10.635zM3.843 0A3.843 3.843 0 0 0 0 3.843c0 2.12 1.722 3.878 3.843 3.878 2.12 0 3.842-1.757 3.842-3.878S5.965.002 3.844 0z"/></symbol><symbol id="icon-close-opt" viewBox="0 0 32 32"><path d="M31.453 3.168 28.285 0 15.726 12.558 3.168 0 0 3.168l12.558 12.558L0 28.285l3.168 3.168 12.558-12.559 12.559 12.559 3.168-3.168-12.559-12.559L31.453 3.168z"/></symbol><symbol id="icon-scrollup" viewBox="0 0 32 32"><path d="M0 16c0 8.837 7.163 16 16 16s16-7.163 16-16S24.837 0 16 0 0 7.163 0 16zm29 0c0 7.18-5.82 13-13 13S3 23.18 3 16 8.82 3 16 3s13 5.82 13 13z"/><path d="m22.086 20.914 2.829-2.829-8.914-8.914-8.914 8.914 2.828 2.828 6.086-6.086z"/></symbol><symbol id="icon-moon-stars" viewBox="0 0 32 32"><path d="M18.214 11.762 17 15l-1.214-3.238L13.5 11l2.286-.762L17 7l1.214 3.238L20.5 11l-2.286.762zm4 6.476L21 15l-1.214 3.238L17.5 19l2.286.762L21 23l1.214-3.238L24.5 19l-2.286-.762zm-7.378 4.093a5.501 5.501 0 1 1-5.582-6.832 4.5 4.5 0 0 0 5.741 5.741c-.016.375-.07.739-.158 1.091zm12.031-9.902L28.5 13l-1.633.571L26 16l-.867-2.429L23.5 13l1.633-.571L26 10l.867 2.429z"/></symbol><symbol id="icon-brightness-up" viewBox="0 0 32 32"><path d="M16 22.4c-3.535 0-6.4-2.865-6.4-6.4s2.865-6.4 6.4-6.4 6.4 2.865 6.4 6.4-2.865 6.4-6.4 6.4zM14.4 1.6a1.6 1.6 0 1 1 3.2 0v3.2a1.6 1.6 0 1 1-3.2 0V1.6zm10.64 3.104a1.6 1.6 0 1 1 2.258 2.254l-.002.002-2.24 2.24a1.6 1.6 0 1 1-2.258-2.254l.002-.002 2.24-2.24zm5.344 9.696a1.6 1.6 0 1 1 0 3.2h-3.168a1.6 1.6 0 1 1 0-3.2h3.168zm-3.088 10.64a1.6 1.6 0 1 1-2.254 2.258l-.002-.002-2.24-2.24a1.6 1.6 0 1 1 2.254-2.258l.002.002 2.24 2.24zM17.6 30.384a1.6 1.6 0 1 1-3.2 0v-3.168a1.6 1.6 0 1 1 3.2 0v3.168zM6.96 27.296a1.6 1.6 0 1 1-2.258-2.254l.002-.002 2.24-2.24a1.6 1.6 0 1 1 2.258 2.254l-.002.002-2.24 2.24zM1.616 17.6a1.6 1.6 0 1 1 0-3.2h3.168a1.6 1.6 0 1 1 0 3.2H1.616zM4.704 6.96a1.6 1.6 0 1 1 2.254-2.258l.002.002 2.24 2.24a1.6 1.6 0 1 1-2.254 2.258L6.944 9.2l-2.24-2.24z"/></symbol></defs></svg>