<svg aria-hidden="true" style="width:0;height:0;position:absolute;overflow:hidden" xmlns="http://www.w3.org/2000/svg"><defs><symbol id="icon-linkedin-opt" viewBox="0 0 32 32"><path d="M8.122 6.455c-.306.03-.606.111-.87.234-.727.342-1.163.969-1.237 1.778-.041.43.037.841.236 1.236.256.509.731.9 1.305 1.077.436.133.958.156 1.438.063.791-.152 1.403-.639 1.68-1.336a2.32 2.32 0 0 0-.238-2.111c-.472-.683-1.338-1.034-2.313-.941zm12.511 5.914c-.88.088-1.486.289-2.091.695-.455.303-.83.684-1.203 1.222l-.128.184-.005-.908-.003-.906H12.93l-.002 6.453-.003 6.453h4.278v-3.716c0-2.344.006-3.78.016-3.894.034-.387.073-.541.219-.836.298-.609.759-1.044 1.32-1.242.575-.203 1.275-.173 1.775.078.186.092.306.18.459.334.419.422.648 1.056.709 1.955.011.148.017 1.538.017 3.777v3.544h4.283l-.006-4.067c-.005-2.981-.011-4.108-.023-4.222-.092-.78-.172-1.172-.347-1.695-.422-1.272-1.188-2.194-2.258-2.719a4.798 4.798 0 0 0-1.572-.463 11.749 11.749 0 0 0-1.163-.028zm-14.375.306c-.005.011-.006 2.914-.005 6.45l.005 6.43 4.289.008V12.657H8.406c-1.698 0-2.144.005-2.148.019z"/></symbol><symbol id="icon-git-opt" viewBox="0 0 32 32"><path d="M14.188.506C11.863.769 9.194 1.737 7.25 3.031 3.225 5.706.669 9.875.119 14.656c-.094.813-.094 2.637 0 3.469C.8 24.106 4.807 29.25 10.406 31.344c.575.212.669.231 1.131.206.6-.031.925-.194 1.325-.65.444-.5.481-.7.481-2.556 0-1.525-.006-1.637-.125-1.844a1.571 1.571 0 0 0-.363-.375l-.238-.15.219-.113c.313-.163.463-.413.575-.969.113-.538.156-.644.488-1.137.506-.744.156-1.512-.762-1.694-2.894-.569-4.575-1.725-5.263-3.625-.313-.837-.394-1.456-.356-2.625.044-1.519.294-2.319 1.044-3.344.2-.281.387-.581.406-.675.025-.088-.006-.519-.063-.95-.106-.775-.113-1.912-.012-2.075.106-.175 1.275.325 2.356 1.006.363.225.744.431.856.45.106.019.412-.006.688-.063 1.825-.381 4.587-.381 6.419 0 .275.056.587.088.706.069.113-.019.45-.2.75-.4.994-.662 2.281-1.219 2.444-1.056.075.081.05 1.725-.044 2.269-.044.281-.069.606-.044.719.019.113.194.419.394.675.419.556.706 1.15.9 1.875.131.475.15.662.144 1.781 0 1.456-.081 1.869-.55 2.813-.788 1.587-2.269 2.563-4.65 3.069-.819.175-1.012.262-1.206.531-.281.394-.2 1.131.156 1.425.05.044.156.238.238.431.137.344.144.438.175 3.044l.031 2.688.163.35c.331.7.869 1.063 1.65 1.106.456.025.55.006 1.125-.206 3.7-1.369 6.881-4.225 8.662-7.781 1.169-2.331 1.7-4.581 1.694-7.188 0-2.594-.525-4.819-1.681-7.137A15.99 15.99 0 0 0 17.938.532c-.837-.1-2.931-.119-3.75-.025zm3.937 1.125c1.637.231 3.081.688 4.575 1.444 4.475 2.256 7.45 6.5 8.119 11.55.113.875.1 2.813-.031 3.719-.625 4.381-3.012 8.163-6.663 10.544-1.206.788-3.081 1.644-3.575 1.631-.281-.006-.625-.206-.744-.438-.069-.137-.094-.712-.119-2.831-.038-2.525-.044-2.675-.175-3.075a3.991 3.991 0 0 0-.35-.731c-.212-.313-.212-.319-.081-.35 1.506-.331 2.106-.525 2.944-.956 1.8-.925 2.869-2.275 3.369-4.25.119-.475.131-.712.131-1.825s-.012-1.35-.131-1.825c-.256-1.012-.6-1.725-1.238-2.588-.087-.119-.087-.194-.019-.594.038-.256.075-.887.081-1.4 0-1.025-.087-1.463-.375-1.819-.137-.175-.163-.181-.637-.175-.762.013-1.825.438-2.95 1.175l-.512.338-.65-.113a17.976 17.976 0 0 0-3.856-.244c-1.019.05-2.088.169-2.713.306-.244.056-.281.044-.769-.275-1.188-.781-2.169-1.175-2.963-1.188-.469-.006-.5 0-.637.175-.362.456-.494 1.638-.319 2.944.088.669.088.762 0 .875-.625.838-.975 1.569-1.219 2.55-.188.75-.237 2.369-.088 3.238.106.637.369 1.488.606 1.962.419.825 1.3 1.794 2.1 2.306 1.056.681 1.85.981 3.681 1.381.131.031.131.038-.081.35-.219.331-.463 1.012-.463 1.306 0 .144-.037.188-.2.244-.469.15-1.35.269-1.825.244-.912-.038-1.444-.419-2.431-1.744-.612-.825-.856-1.063-1.237-1.206-.275-.1-2.3-.438-2.344-.394-.019.012.406.35.938.75.531.406 1.081.863 1.225 1.025.15.169.425.637.638 1.081.206.431.494.944.631 1.144a3.136 3.136 0 0 0 2.119 1.294c.494.063 1.544-.006 2.075-.125.144-.031.275-.063.306-.063.025 0 .044.625.044 1.387 0 1.587-.056 1.819-.45 2.025-.331.175-.637.131-1.425-.188-5.037-2.069-8.469-6.506-9.231-11.944-.119-.844-.131-2.825-.025-3.656.45-3.406 1.906-6.406 4.287-8.781C8.806 2.504 13.424.966 18.124 1.628z"/></symbol></defs></svg>