<svg xmlns="http://www.w3.org/2000/svg" aria-hidden="true" style="position:absolute;width:0;height:0;overflow:hidden"><defs><symbol id="film-tape" width="24px" heigth="24px" viewBox="0 0 32 32"><path fill="none" stroke="#fff" stroke-linecap="round" stroke-linejoin="round" stroke-width=".427" d="M4.228.427H.891a.465.465 0 0 0-.465.465v3.337c0 .257.208.465.465.465v0h3.337a.465.465 0 0 0 .465-.465v0V.892a.465.465 0 0 0-.465-.465v0zm-2.735 0v4.267M3.627.427v4.267M.427 2.56h4.267M.427 1.493h1.067M.427 3.627h1.067m2.133 0h1.067M3.627 1.493h1.067" style="stroke:var(--color1, #fff)"/></symbol><symbol id="search-line" viewBox="0 0 12608 32"><path fill="none" stroke="#fff" stroke-width="16" d="M0 24h12608" style="stroke:var(--color1, #fff)"/></symbol><symbol id="search" viewBox="0 0 32 32"><path fill="none" stroke="#fff" stroke-linecap="round" stroke-linejoin="round" stroke-width="2.667" d="M14.667 25.333c5.891 0 10.667-4.776 10.667-10.667S20.558 3.999 14.667 3.999v0C8.776 3.999 4 8.775 4 14.666s4.776 10.667 10.667 10.667v0zM28 28l-5.8-5.8" style="stroke:var(--color1, #fff)"/></symbol><symbol id="icon-circle-up" viewBox="0 0 32 32"><path d="M0 16c0 8.837 7.163 16 16 16s16-7.163 16-16S24.837 0 16 0 0 7.163 0 16zm29 0c0 7.18-5.82 13-13 13S3 23.18 3 16 8.82 3 16 3s13 5.82 13 13z"/><path d="m22.086 20.914 2.829-2.829-8.914-8.914-8.914 8.914 2.828 2.828 6.086-6.086z"/></symbol></defs></svg>