<svg aria-hidden="true" style="position: absolute; width: 0; height: 0; overflow: hidden;" version="1.1"
    xmlns="http://www.w3.org/2000/svg" xmlns:xlink="http://www.w3.org/1999/xlink">
    <defs>
        <symbol id="iconlinkedinOpt" viewBox="0 0 32 32">
            <path
                d="M8.122 6.455c-0.306 0.030-0.606 0.111-0.87 0.234-0.727 0.342-1.163 0.969-1.237 1.778-0.041 0.43 0.037 0.841 0.236 1.236 0.256 0.509 0.731 0.9 1.305 1.077 0.436 0.133 0.958 0.156 1.438 0.063 0.791-0.152 1.403-0.639 1.68-1.336 0.269-0.675 0.175-1.514-0.238-2.111-0.472-0.683-1.338-1.034-2.313-0.941zM20.633 12.369c-0.88 0.088-1.486 0.289-2.091 0.695-0.455 0.303-0.83 0.684-1.203 1.222l-0.128 0.184-0.005-0.908-0.003-0.906h-4.273l-0.002 6.453-0.003 6.453h4.278v-3.716c0-2.344 0.006-3.78 0.016-3.894 0.034-0.387 0.073-0.541 0.219-0.836 0.298-0.609 0.759-1.044 1.32-1.242 0.575-0.203 1.275-0.173 1.775 0.078 0.186 0.092 0.306 0.18 0.459 0.334 0.419 0.422 0.648 1.056 0.709 1.955 0.011 0.148 0.017 1.538 0.017 3.777v3.544h4.283l-0.006-4.067c-0.005-2.981-0.011-4.108-0.023-4.222-0.092-0.78-0.172-1.172-0.347-1.695-0.422-1.272-1.188-2.194-2.258-2.719-0.495-0.244-0.969-0.383-1.572-0.463-0.184-0.023-1.003-0.044-1.163-0.028zM6.258 12.675c-0.005 0.011-0.006 2.914-0.005 6.45l0.005 6.43 4.289 0.008v-12.906h-2.141c-1.698 0-2.144 0.005-2.148 0.019z">
            </path>
        </symbol>
        <symbol id="icon-git-opt" viewBox="0 0 32 32">
            <path
                d="M14.188 0.506c-2.325 0.263-4.994 1.231-6.938 2.525-4.025 2.675-6.581 6.844-7.131 11.625-0.094 0.813-0.094 2.637 0 3.469 0.681 5.981 4.688 11.125 10.287 13.219 0.575 0.212 0.669 0.231 1.131 0.206 0.6-0.031 0.925-0.194 1.325-0.65 0.444-0.5 0.481-0.7 0.481-2.556 0-1.525-0.006-1.637-0.125-1.844-0.075-0.119-0.238-0.288-0.363-0.375l-0.238-0.15 0.219-0.113c0.313-0.163 0.463-0.413 0.575-0.969 0.113-0.538 0.156-0.644 0.488-1.137 0.506-0.744 0.156-1.512-0.762-1.694-2.894-0.569-4.575-1.725-5.263-3.625-0.313-0.837-0.394-1.456-0.356-2.625 0.044-1.519 0.294-2.319 1.044-3.344 0.2-0.281 0.387-0.581 0.406-0.675 0.025-0.088-0.006-0.519-0.063-0.95-0.106-0.775-0.113-1.912-0.012-2.075 0.106-0.175 1.275 0.325 2.356 1.006 0.363 0.225 0.744 0.431 0.856 0.45 0.106 0.019 0.412-0.006 0.688-0.063 1.825-0.381 4.587-0.381 6.419 0 0.275 0.056 0.587 0.088 0.706 0.069 0.113-0.019 0.45-0.2 0.75-0.4 0.994-0.662 2.281-1.219 2.444-1.056 0.075 0.081 0.050 1.725-0.044 2.269-0.044 0.281-0.069 0.606-0.044 0.719 0.019 0.113 0.194 0.419 0.394 0.675 0.419 0.556 0.706 1.15 0.9 1.875 0.131 0.475 0.15 0.662 0.144 1.781 0 1.456-0.081 1.869-0.55 2.813-0.788 1.587-2.269 2.563-4.65 3.069-0.819 0.175-1.012 0.262-1.206 0.531-0.281 0.394-0.2 1.131 0.156 1.425 0.050 0.044 0.156 0.238 0.238 0.431 0.137 0.344 0.144 0.438 0.175 3.044l0.031 2.688 0.163 0.35c0.331 0.7 0.869 1.063 1.65 1.106 0.456 0.025 0.55 0.006 1.125-0.206 3.7-1.369 6.881-4.225 8.662-7.781 1.169-2.331 1.7-4.581 1.694-7.188 0-2.594-0.525-4.819-1.681-7.137-2.387-4.775-7.025-8.050-12.331-8.706-0.837-0.1-2.931-0.119-3.75-0.025zM18.125 1.631c1.637 0.231 3.081 0.688 4.575 1.444 4.475 2.256 7.45 6.5 8.119 11.55 0.113 0.875 0.1 2.813-0.031 3.719-0.625 4.381-3.012 8.163-6.663 10.544-1.206 0.788-3.081 1.644-3.575 1.631-0.281-0.006-0.625-0.206-0.744-0.438-0.069-0.137-0.094-0.712-0.119-2.831-0.038-2.525-0.044-2.675-0.175-3.075-0.075-0.225-0.238-0.556-0.35-0.731-0.212-0.313-0.212-0.319-0.081-0.35 1.506-0.331 2.106-0.525 2.944-0.956 1.8-0.925 2.869-2.275 3.369-4.25 0.119-0.475 0.131-0.712 0.131-1.825s-0.012-1.35-0.131-1.825c-0.256-1.012-0.6-1.725-1.238-2.588-0.087-0.119-0.087-0.194-0.019-0.594 0.038-0.256 0.075-0.887 0.081-1.4 0-1.025-0.087-1.463-0.375-1.819-0.137-0.175-0.163-0.181-0.637-0.175-0.762 0.013-1.825 0.438-2.95 1.175l-0.512 0.338-0.65-0.113c-1.175-0.213-2.631-0.306-3.856-0.244-1.019 0.050-2.088 0.169-2.713 0.306-0.244 0.056-0.281 0.044-0.769-0.275-1.188-0.781-2.169-1.175-2.963-1.188-0.469-0.006-0.5 0-0.637 0.175-0.362 0.456-0.494 1.638-0.319 2.944 0.088 0.669 0.088 0.762 0 0.875-0.625 0.838-0.975 1.569-1.219 2.55-0.188 0.75-0.237 2.369-0.088 3.238 0.106 0.637 0.369 1.488 0.606 1.962 0.419 0.825 1.3 1.794 2.1 2.306 1.056 0.681 1.85 0.981 3.681 1.381 0.131 0.031 0.131 0.038-0.081 0.35-0.219 0.331-0.463 1.012-0.463 1.306 0 0.144-0.037 0.188-0.2 0.244-0.469 0.15-1.35 0.269-1.825 0.244-0.912-0.038-1.444-0.419-2.431-1.744-0.612-0.825-0.856-1.063-1.237-1.206-0.275-0.1-2.3-0.438-2.344-0.394-0.019 0.012 0.406 0.35 0.938 0.75 0.531 0.406 1.081 0.863 1.225 1.025 0.15 0.169 0.425 0.637 0.638 1.081 0.206 0.431 0.494 0.944 0.631 1.144 0.487 0.7 1.294 1.188 2.119 1.294 0.494 0.063 1.544-0.006 2.075-0.125 0.144-0.031 0.275-0.063 0.306-0.063 0.025 0 0.044 0.625 0.044 1.387 0 1.587-0.056 1.819-0.45 2.025-0.331 0.175-0.637 0.131-1.425-0.188-5.037-2.069-8.469-6.506-9.231-11.944-0.119-0.844-0.131-2.825-0.025-3.656 0.45-3.406 1.906-6.406 4.287-8.781 3.338-3.337 7.956-4.875 12.656-4.213z">
            </path>
        </symbol>
    </defs>
</svg>