<svg aria-hidden="true" style="position: absolute; width: 0; height: 0; overflow: hidden;" version="1.1"
    xmlns="http://www.w3.org/2000/svg" xmlns:xlink="http://www.w3.org/1999/xlink">
    <defs>
        <symbol id="icon-film-opt" viewBox="0 0 32 32">
            <path fill="none" stroke="#fff" style="stroke: var(--color1, #fff)" stroke-linejoin="round"
                stroke-linecap="round" stroke-miterlimit="4" stroke-width="2.6667"
                d="M26.436 3.607h-20.86c-1.606 0-2.908 1.24-2.908 2.769v19.863c0 1.529 1.302 2.769 2.908 2.769h20.86c1.606 0 2.908-1.24 2.908-2.769v-19.863c0-1.529-1.302-2.769-2.908-2.769zM9.336 3.607v25.401M22.674 3.607v25.401M2.668 16.307h26.676M2.668 9.957h6.669M2.668 22.657h6.669M22.674 22.657h6.669M22.674 9.957h6.669">
            </path>
        </symbol>
        <symbol id="icon-search-opt" viewBox="0 0 32 32">
            <path fill="none" stroke="#fff" style="stroke: var(--color1, #fff)" stroke-linejoin="round"
                stroke-linecap="round" stroke-miterlimit="4" stroke-width="2.6667"
                d="M14.672 25.342c5.893 0 10.67-4.777 10.67-10.67s-4.777-10.67-10.67-10.67v0c-5.893 0-10.67 4.777-10.67 10.67s4.777 10.67 10.67 10.67v0zM28.009 28.009l-5.802-5.802">
            </path>
        </symbol>
        <symbol id="icon-heart-opt" viewBox="0 0 32 32">
            <path fill="#ff6b08" style="fill: var(--color2, #ff6b08)"
                d="M16.009 30.598l-2.241-2.241c-8.325-7.364-13.768-12.327-13.768-18.411 0-4.963 3.842-8.805 8.805-8.805 2.722 0 5.443 1.281 7.204 3.362 1.761-2.081 4.483-3.362 7.204-3.362 4.963 0 8.805 3.842 8.805 8.805 0 6.084-5.443 11.046-13.768 18.411l-2.241 2.241z">
            </path>
        </symbol>
        <symbol id="icon-instagram-opt" viewBox="0 0 32 32">
            <path
                d="M31.968 9.408c-0.074-1.701-0.349-2.869-0.742-3.882-0.424-1.111-1.054-2.059-1.85-2.837l-0.001-0.001c-0.78-0.792-1.724-1.419-2.778-1.827l-0.054-0.018c-1.019-0.394-2.181-0.667-3.882-0.742-1.712-0.082-2.256-0.101-6.602-0.101-4.344 0-4.888 0.019-6.595 0.094-1.699 0.074-2.869 0.349-3.88 0.742-1.112 0.424-2.060 1.054-2.839 1.85l-0.001 0.001c-0.791 0.78-1.418 1.724-1.825 2.778l-0.018 0.054c-0.395 1.019-0.669 2.181-0.744 3.882-0.082 1.712-0.101 2.256-0.101 6.602 0 4.344 0.019 4.888 0.094 6.595 0.075 1.701 0.35 2.869 0.744 3.882 0.426 1.11 1.055 2.057 1.849 2.837l0.001 0.001c0.8 0.813 1.77 1.443 2.832 1.843 1.019 0.395 2.182 0.67 3.882 0.744 1.707 0.075 2.251 0.094 6.595 0.094 4.346 0 4.89-0.019 6.595-0.094 1.701-0.074 2.869-0.349 3.882-0.742 2.157-0.85 3.833-2.526 4.664-4.628l0.019-0.055c0.394-1.019 0.669-2.182 0.744-3.882 0.075-1.707 0.093-2.251 0.093-6.595s-0.006-4.888-0.080-6.595zM29.088 22.474c-0.070 1.563-0.333 2.406-0.55 2.97-0.552 1.399-1.64 2.486-3.004 3.024l-0.036 0.012c-0.56 0.219-1.411 0.482-2.968 0.55-1.688 0.075-2.194 0.094-6.464 0.094-4.269 0-4.782-0.019-6.464-0.094-1.563-0.069-2.406-0.331-2.97-0.55-0.721-0.269-1.334-0.676-1.836-1.192l-0.001-0.001c-0.517-0.503-0.924-1.117-1.184-1.803l-0.011-0.034c-0.218-0.563-0.48-1.413-0.549-2.97-0.075-1.688-0.094-2.195-0.094-6.464 0-4.27 0.019-4.784 0.094-6.464 0.069-1.563 0.331-2.406 0.549-2.97 0.269-0.722 0.678-1.337 1.198-1.837l0.002-0.002c0.504-0.517 1.119-0.923 1.806-1.182l0.034-0.011c0.56-0.219 1.411-0.48 2.968-0.55 1.688-0.074 2.195-0.093 6.464-0.093 4.275 0 4.782 0.019 6.464 0.093 1.563 0.069 2.406 0.331 2.97 0.55 0.693 0.256 1.325 0.662 1.837 1.194 0.531 0.52 0.938 1.144 1.195 1.84 0.218 0.56 0.48 1.411 0.549 2.968 0.075 1.688 0.094 2.194 0.094 6.464 0 4.269-0.019 4.768-0.094 6.458z">
            </path>
            <path
                d="M16.059 7.782c-4.539 0.002-8.218 3.682-8.219 8.221v0c0.091 4.471 3.737 8.060 8.221 8.060s8.13-3.589 8.221-8.052l0-0.009c-0.001-4.54-3.681-8.22-8.221-8.221h-0zM16.059 21.334c-2.945-0-5.332-2.388-5.332-5.333s2.388-5.333 5.333-5.333c0 0 0.001 0 0.001 0h-0c2.946 0 5.334 2.388 5.334 5.334s-2.388 5.334-5.334 5.334v0zM26.525 7.458c0 1.060-0.86 1.92-1.92 1.92s-1.92-0.86-1.92-1.92v0c0-1.060 0.86-1.92 1.92-1.92s1.92 0.86 1.92 1.92v0z">
            </path>
        </symbol>
        <symbol id="icon-twitter-opt" viewBox="0 0 32 32">
            <path fill="#afb1b8" style="fill: var(--color3, #afb1b8)"
                d="M32 6.078c-1.1 0.493-2.376 0.857-3.713 1.028l-0.068 0.007c1.36-0.817 2.382-2.078 2.873-3.579l0.013-0.046c-1.197 0.722-2.591 1.273-4.076 1.573l-0.084 0.014c-1.2-1.279-2.9-2.076-4.787-2.076-3.622 0-6.558 2.936-6.558 6.558 0 0.001 0 0.003 0 0.004v-0c0 0.52 0.043 1.021 0.152 1.496-5.454-0.266-10.28-2.88-13.522-6.861-0.564 0.949-0.899 2.092-0.902 3.313v0.001c0 2.272 1.171 4.286 2.914 5.451-1.091-0.030-2.107-0.325-2.994-0.823l0.033 0.017v0.072c0.003 3.165 2.236 5.807 5.213 6.44l0.043 0.008c-0.499 0.136-1.071 0.215-1.662 0.215-0.020 0-0.041-0-0.061-0l0.003 0c-0.419 0-0.843-0.024-1.242-0.112 0.85 2.598 3.261 4.509 6.13 4.57-2.215 1.746-5.045 2.8-8.122 2.8-0.004 0-0.008 0-0.013 0h0.001c-0.018 0-0.040 0-0.062 0-0.531 0-1.055-0.034-1.569-0.099l0.061 0.006c2.826 1.846 6.287 2.944 10.004 2.944 0.021 0 0.042-0 0.063-0h-0.003c12.072 0 18.672-10 18.672-18.669 0-0.288-0.010-0.57-0.024-0.848 1.299-0.936 2.39-2.064 3.258-3.355l0.030-0.047z">
            </path>
        </symbol>
        <symbol id="icon-facebook-opt" viewBox="0 0 32 32">
            <path fill="#afb1b8" style="fill: var(--color3, #afb1b8)"
                d="M21.328 5.312h2.923v-5.088c-1.232-0.143-2.66-0.224-4.107-0.224-0.052 0-0.104 0-0.157 0l0.008-0c-4.213 0-7.099 2.65-7.099 7.52v4.48h-4.646v5.688h4.646v14.312h5.699v-14.31h4.459l0.709-5.688h-5.17v-3.922c0-1.643 0.443-2.768 2.734-2.768z">
            </path>
        </symbol>
        <symbol id="icon-linkedin-opt" viewBox="0 0 32 32">
            <path fill="#afb1b8" style="fill: var(--color3, #afb1b8)"
                d="M31.992 32h0.008v-11.738c0-5.741-1.235-10.163-7.947-10.163-3.227 0-5.392 1.77-6.277 3.45h-0.093v-2.914h-6.365v21.363h6.627v-10.578c0-2.786 0.528-5.48 3.978-5.48 3.398 0 3.45 3.179 3.45 5.658v10.402h6.619zM0.528 10.635h6.635v21.365h-6.635v-21.365zM3.843 0c-2.123 0-3.843 1.721-3.843 3.843v0c0 2.12 1.722 3.878 3.843 3.878 2.12 0 3.842-1.757 3.842-3.878s-1.72-3.841-3.841-3.843h-0z">
            </path>
        </symbol>
        <symbol id="icon-close-opt" viewBox="0 0 32 32">
            <path
                d="M31.453 3.168l-3.168-3.168-12.559 12.558-12.558-12.558-3.168 3.168 12.558 12.558-12.558 12.559 3.168 3.168 12.558-12.559 12.559 12.559 3.168-3.168-12.559-12.559 12.559-12.558z">
            </path>
        </symbol>
        <symbol id="icon-scrollup" viewBox="0 0 32 32">
            <path
                d="M0 16c0 8.837 7.163 16 16 16s16-7.163 16-16S24.837 0 16 0 0 7.163 0 16zm29 0c0 7.18-5.82 13-13 13S3 23.18 3 16 8.82 3 16 3s13 5.82 13 13z" />
            <path d="m22.086 20.914 2.829-2.829-8.914-8.914-8.914 8.914 2.828 2.828 6.086-6.086z" />
        </symbol>
        <symbol id="icon-moon-stars" viewBox="0 0 32 32">
            <path
                d="M18.214 11.762 17 15l-1.214-3.238L13.5 11l2.286-.762L17 7l1.214 3.238L20.5 11l-2.286.762zm4 6.476L21 15l-1.214 3.238L17.5 19l2.286.762L21 23l1.214-3.238L24.5 19l-2.286-.762zm-7.378 4.093a5.501 5.501 0 1 1-5.582-6.832 4.5 4.5 0 0 0 5.741 5.741c-.016.375-.07.739-.158 1.091zm12.031-9.902L28.5 13l-1.633.571L26 16l-.867-2.429L23.5 13l1.633-.571L26 10l.867 2.429z" />
        </symbol>
        <symbol id="icon-brightness-up" viewBox="0 0 32 32">
            <path
                d="M16 22.4c-3.535 0-6.4-2.865-6.4-6.4s2.865-6.4 6.4-6.4 6.4 2.865 6.4 6.4-2.865 6.4-6.4 6.4zM14.4 1.6a1.6 1.6 0 1 1 3.2 0v3.2a1.6 1.6 0 1 1-3.2 0V1.6zm10.64 3.104a1.6 1.6 0 1 1 2.258 2.254l-.002.002-2.24 2.24a1.6 1.6 0 1 1-2.258-2.254l.002-.002 2.24-2.24zm5.344 9.696a1.6 1.6 0 1 1 0 3.2h-3.168a1.6 1.6 0 1 1 0-3.2h3.168zm-3.088 10.64a1.6 1.6 0 1 1-2.254 2.258l-.002-.002-2.24-2.24a1.6 1.6 0 1 1 2.254-2.258l.002.002 2.24 2.24zM17.6 30.384a1.6 1.6 0 1 1-3.2 0v-3.168a1.6 1.6 0 1 1 3.2 0v3.168zM6.96 27.296a1.6 1.6 0 1 1-2.258-2.254l.002-.002 2.24-2.24a1.6 1.6 0 1 1 2.258 2.254l-.002.002-2.24 2.24zM1.616 17.6a1.6 1.6 0 1 1 0-3.2h3.168a1.6 1.6 0 1 1 0 3.2H1.616zM4.704 6.96a1.6 1.6 0 1 1 2.254-2.258l.002.002 2.24 2.24a1.6 1.6 0 1 1-2.254 2.258L6.944 9.2l-2.24-2.24z" />
        </symbol>
        <symbol id="icon-youtube" viewBox="0 0 32 32">
<path d="M31.681 9.6c0 0-0.313-2.206-1.275-3.175-1.219-1.275-2.581-1.281-3.206-1.356-4.475-0.325-11.194-0.325-11.194-0.325h-0.012c0 0-6.719 0-11.194 0.325-0.625 0.075-1.987 0.081-3.206 1.356-0.963 0.969-1.269 3.175-1.269 3.175s-0.319 2.588-0.319 5.181v2.425c0 2.587 0.319 5.181 0.319 5.181s0.313 2.206 1.269 3.175c1.219 1.275 2.819 1.231 3.531 1.369 2.563 0.244 10.881 0.319 10.881 0.319s6.725-0.012 11.2-0.331c0.625-0.075 1.988-0.081 3.206-1.356 0.962-0.969 1.275-3.175 1.275-3.175s0.319-2.587 0.319-5.181v-2.425c-0.006-2.588-0.325-5.181-0.325-5.181zM12.694 20.15v-8.994l8.644 4.513-8.644 4.481z"></path>
</symbol>
    </defs>
</svg>